<svg width="20" height="20" viewBox="0 0 20 20" fill="none" xmlns="http://www.w3.org/2000/svg">
<path d="M10.0425 1.66675L8.90084 4.00008C8.08505 5.66704 6.99168 7.1831 5.66751 8.48341L5.51751 8.62508C4.66706 9.45072 4.18114 10.5815 4.16751 11.7667V11.9167C4.14498 14.2377 5.52801 16.3419 7.66751 17.2417L7.88417 17.3334C9.2874 17.9294 10.8726 17.9294 12.2758 17.3334H12.3258C14.4813 16.3969 15.8643 14.2584 15.8342 11.9084V8.29175C15.1159 9.93219 13.8113 11.2456 12.1758 11.9751C12.1758 11.9751 12.1758 11.9751 12.1258 11.9751C12.0758 11.9751 11.4925 12.2167 11.2425 11.9751C11.0192 11.7491 10.9978 11.3928 11.1925 11.1417L11.2508 11.1001H11.2925C13.2056 9.6459 13.6517 6.95152 12.3092 4.95841C11.2258 3.30841 10.0425 1.66675 10.0425 1.66675Z" fill="#EE884F"/>
</svg>
