<svg width="78" height="78" viewBox="0 0 78 78" fill="none" xmlns="http://www.w3.org/2000/svg">
<circle cx="39" cy="39" r="39" fill="url(#paint0_linear_1_7)"/>
<path d="M27.2 15.536H28.224C29.248 15.536 30.2507 15.664 31.232 15.92C32.2133 16.1333 33.088 16.5387 33.856 17.136C34.624 17.6907 35.2427 18.4587 35.712 19.44C36.1813 20.4213 36.416 21.68 36.416 23.216V54.384C36.416 55.9627 36.16 57.2427 35.648 58.224C35.1787 59.2053 34.5387 59.9733 33.728 60.528C32.96 61.0827 32.0427 61.4667 30.976 61.68C29.952 61.8933 28.9067 62 27.84 62H27.2V15.536ZM43.008 15.536H44.032C45.056 15.536 46.0587 15.664 47.04 15.92C48.0213 16.1333 48.896 16.5387 49.664 17.136C50.432 17.6907 51.0507 18.4587 51.52 19.44C51.9893 20.4213 52.224 21.68 52.224 23.216V54.384C52.224 55.9627 51.968 57.2427 51.456 58.224C50.9867 59.2053 50.3467 59.9733 49.536 60.528C48.768 61.0827 47.8507 61.4667 46.784 61.68C45.76 61.8933 44.7147 62 43.648 62H43.008V15.536ZM37.184 35.376H43.008C42.8373 36.272 42.6453 37.104 42.432 37.872C42.2187 38.5973 41.8987 39.2373 41.472 39.792C41.088 40.304 40.576 40.7307 39.936 41.072C39.296 41.3707 38.4853 41.52 37.504 41.52H37.184V35.376Z" fill="white"/>
<defs>
<linearGradient id="paint0_linear_1_7" x1="-3.02913" y1="6.81553" x2="79.5146" y2="76.8641" gradientUnits="userSpaceOnUse">
<stop stop-color="#B741FF"/>
<stop offset="1" stop-color="#3835CA"/>
</linearGradient>
</defs>
</svg>
