<svg width="20" height="20" viewBox="0 0 20 20" fill="none" xmlns="http://www.w3.org/2000/svg">
<path d="M18.4166 7.58333C18.3333 4.75 16.0833 2.5 13.25 2.5C12.3333 2.5 10.9166 3.16667 10.3333 4.25C10.25 4.5 9.91663 4.5 9.83329 4.25C9.16663 3.25 7.83329 2.58333 6.83329 2.58333C4.08329 2.58333 1.74996 4.83333 1.66663 7.58333V7.75C1.66663 9.16667 2.24996 10.5 3.24996 11.5C3.24996 11.5 3.24996 11.5 3.24996 11.5833C3.33329 11.6667 7.33329 15.1667 9.16663 16.75C9.66663 17.1667 10.4166 17.1667 10.9166 16.75C12.75 15.1667 16.6666 11.6667 16.8333 11.5833C16.8333 11.5833 16.8333 11.5833 16.8333 11.5C17.8333 10.5833 18.4166 9.25 18.4166 7.75V7.58333Z" fill="#F26363"/>
</svg>
