<svg width="21" height="20" viewBox="0 0 21 20" fill="none" xmlns="http://www.w3.org/2000/svg">
<path d="M12.7 3.78063L13.25 5.4473C13.4985 6.2187 14.2146 6.74312 15.025 6.7473H16.7584C17.5713 6.74213 18.2941 7.26367 18.5454 8.03677C18.7968 8.80987 18.5189 9.65674 17.8584 10.1306L16.4334 11.164C15.7774 11.6402 15.5017 12.484 15.75 13.2556L16.3 14.9223C16.5721 15.6966 16.3065 16.5577 15.6456 17.0443C14.9847 17.5308 14.0836 17.5287 13.425 17.039L12.025 15.9973C11.3687 15.5219 10.4813 15.5219 9.82502 15.9973L8.42502 17.039C7.77014 17.5183 6.8806 17.5195 6.22435 17.0421C5.56811 16.5647 5.29553 15.7179 5.55002 14.9473L6.10002 13.2806C6.34832 12.509 6.07265 11.6652 5.41669 11.189L3.95835 10.139C3.28444 9.6641 3.00184 8.80338 3.26312 8.02146C3.5244 7.23954 4.26767 6.72162 5.09169 6.7473H6.82502C7.63102 6.74549 8.34569 6.22878 8.60002 5.46396L9.15002 3.7973C9.39658 3.02747 10.1106 2.50382 10.919 2.50002C11.7273 2.49623 12.4462 3.01315 12.7 3.78063Z" fill="#ECCA15"/>
</svg>
