<svg width="21" height="20" viewBox="0 0 21 20" fill="none" xmlns="http://www.w3.org/2000/svg">
<path d="M14.9667 6.04167H14.2084C13.4517 6.08433 12.8031 5.5066 12.7584 4.75V4.68333C12.7369 4.31841 12.5711 3.97706 12.2974 3.73468C12.0238 3.49231 11.6649 3.36888 11.3 3.39167H6.08337V3.125C6.08337 2.77982 5.80355 2.5 5.45837 2.5C5.1132 2.5 4.83337 2.77982 4.83337 3.125V17.2917C4.83337 17.6368 5.1132 17.9167 5.45837 17.9167C5.80355 17.9167 6.08337 17.6368 6.08337 17.2917V10.3917H7.05837C7.8151 10.349 8.46364 10.9267 8.50837 11.6833V11.7333C8.55311 12.4899 9.20165 13.0677 9.95837 13.025H14.9584C15.7151 13.0677 16.3636 12.4899 16.4084 11.7333V7.31667C16.3507 6.57224 15.7126 6.00795 14.9667 6.04167Z" fill="#4EAFF5"/>
</svg>
