<svg width="21" height="20" viewBox="0 0 21 20" fill="none" xmlns="http://www.w3.org/2000/svg">
<path d="M10.0037 2.92257L5.46202 10.8809C5.28994 11.1753 5.29044 11.5397 5.46332 11.8336C5.63621 12.1275 5.95446 12.3049 6.29535 12.2976H8.67869C8.98513 12.2954 9.27978 12.4155 9.49725 12.6314C9.71473 12.8473 9.83703 13.1411 9.83702 13.4476V16.4559C9.83984 16.8214 10.0805 17.1423 10.4305 17.2475C10.7805 17.3527 11.1582 17.2176 11.362 16.9142L15.762 10.3142C15.9546 10.0239 15.9727 9.65135 15.8093 9.34362C15.6459 9.03589 15.3271 8.84232 14.9787 8.83924H12.712C12.0769 8.83924 11.562 8.32436 11.562 7.68924V3.33924C11.5647 2.95974 11.3106 2.62639 10.944 2.52836C10.5773 2.43033 10.1908 2.59239 10.0037 2.92257Z" fill="#C6D612"/>
</svg>
